<svg xmlns="http://www.w3.org/2000/svg" xmlns:xlink="http://www.w3.org/1999/xlink" version="1.1" id="Layer_1" x="0px" y="0px" width="225" height="65" viewBox="0 0 225 65" style="enable-background:new 0 0 225 65;" xml:space="preserve">
<style type="text/css">
	.st0{filter:url(#Adobe_OpacityMaskFilter);}
	.st1{fill-rule:evenodd;clip-rule:evenodd;fill:#FFFFFF;}
	.st2{mask:url(#interswitch_x40_1x-z_1_);fill-rule:evenodd;clip-rule:evenodd;fill:#EC372C;}
	.st3{filter:url(#Adobe_OpacityMaskFilter_1_);}
	.st4{mask:url(#interswitch_x40_1x-B_1_);fill-rule:evenodd;clip-rule:evenodd;fill:#EC372C;}
	.st5{fill-rule:evenodd;clip-rule:evenodd;fill:#05435F;}
</style>
<g>
	<defs>
		<filter id="Adobe_OpacityMaskFilter" filterUnits="userSpaceOnUse" x="173" y="12.2" width="48.4" height="57.8">
			<feColorMatrix type="matrix" values="1 0 0 0 0  0 1 0 0 0  0 0 1 0 0  0 0 0 1 0"/>
		</filter>
	</defs>
	<mask maskUnits="userSpaceOnUse" x="173" y="12.2" width="48.4" height="57.8" id="interswitch_x40_1x-z_1_">
		<g class="st0">
			<path id="interswitch_x40_1x-y_1_" class="st1" d="M181.1,24c0-1.1,14-3.5,23.5-3.5c4.1,0,7.3,0.5,8.1,1.7     c4.2,5.6-25.6,40.7-28.1,39.7c-2-0.5,15.9-22.9,12.9-32C196.1,25,181.1,25.6,181.1,24z"/>
		</g>
	</mask>
	<polygon class="st2" points="173,70 221.3,70 221.3,12.2 173,12.2  "/>
	<defs>
		<filter id="Adobe_OpacityMaskFilter_1_" filterUnits="userSpaceOnUse" x="198.3" y="-5" width="29.3" height="30.2">
			<feColorMatrix type="matrix" values="1 0 0 0 0  0 1 0 0 0  0 0 1 0 0  0 0 0 1 0"/>
		</filter>
	</defs>
	<mask maskUnits="userSpaceOnUse" x="198.3" y="-5" width="29.3" height="30.2" id="interswitch_x40_1x-B_1_">
		<g class="st3">
			<path id="interswitch_x40_1x-A_1_" class="st1" d="M206.5,10.1c0-3.8,2.9-6.9,6.5-6.9c3.6,0,6.5,3.1,6.5,6.9     c0,3.8-2.9,6.9-6.5,6.9C209.4,17,206.5,13.9,206.5,10.1z"/>
		</g>
	</mask>
	<polygon class="st4" points="198.3,25.2 227.7,25.2 227.7,-5 198.3,-5  "/>
	<path class="st5" d="M74.4,33.8l0.7-4.2c0,0-5.7-1.8-10.3,1.6v16.7h4.9V34.4C71.7,32.8,74.4,33.8,74.4,33.8 M32.2,24.9l4.9-0.9v5.4   H42v4.4h-4.8v6.5c0,1.1,0.2,2,0.5,2.6c0.4,0.7,1.1,1,2.2,1c0.5,0,1.1-0.1,1.6-0.2c0.5-0.1,1.1-0.3,1.5-0.4l0.7,4.1   c-0.6,0.3-1.2,0.5-2,0.7c-0.7,0.2-1.6,0.3-2.7,0.3c-1.3,0-2.4-0.2-3.3-0.6c-0.9-0.4-1.6-0.9-2.1-1.6c-0.5-0.7-0.9-1.5-1.1-2.5   c-0.2-1-0.3-2.1-0.3-3.3V24.9z M82.4,44.2c0.9,0,1.5-0.1,1.9-0.3c0.4-0.2,0.6-0.6,0.6-1.1c0-0.4-0.2-0.8-0.7-1.1   c-0.5-0.3-1.2-0.7-2.2-1.1c-0.8-0.3-1.5-0.6-2.1-0.9c-0.6-0.3-1.1-0.7-1.6-1.2c-0.4-0.5-0.8-1-1-1.6c-0.2-0.6-0.4-1.4-0.4-2.3   c0-1.7,0.6-3.1,1.8-4.1c1.2-1,2.8-1.5,4.9-1.5c1.1,0,2.1,0.1,3,0.3c1,0.2,1.7,0.4,2.3,0.6L88.1,34c-0.6-0.2-1.2-0.4-1.9-0.6   c-0.7-0.2-1.4-0.3-2.2-0.3c-1.5,0-2.3,0.5-2.3,1.4c0,0.2,0,0.4,0.1,0.6c0.1,0.2,0.2,0.3,0.4,0.5c0.2,0.1,0.5,0.3,0.8,0.5   c0.3,0.2,0.8,0.4,1.3,0.6c1.1,0.4,2,0.8,2.7,1.3c0.7,0.4,1.3,0.9,1.7,1.3c0.4,0.5,0.7,1,0.9,1.6c0.2,0.6,0.2,1.3,0.2,2   c0,1.8-0.6,3.2-1.9,4.1c-1.3,0.9-3.1,1.4-5.4,1.4c-1.5,0-2.8-0.1-3.8-0.4c-1-0.3-1.7-0.5-2.1-0.7l0.8-4.2c0.8,0.4,1.7,0.6,2.6,0.8   C80.6,44.1,81.5,44.2,82.4,44.2 M104.7,37.4c-0.4,1.8-0.9,3.5-1.4,5.3c-0.5,1.8-1,3.5-1.6,5.3H98c-0.4-1-0.8-2.2-1.3-3.5   c-0.5-1.4-0.9-2.8-1.4-4.4c-0.5-1.6-1-3.3-1.5-5.1c-0.5-1.8-1-3.6-1.5-5.4h5.1c0.2,0.8,0.4,1.8,0.6,2.8c0.2,1,0.4,2,0.7,3.1   c0.2,1.1,0.5,2.1,0.7,3.2c0.3,1.1,0.5,2.1,0.8,3.1c0.3-1,0.6-2.1,0.8-3.2c0.3-1.1,0.5-2.1,0.8-3.2c0.2-1,0.5-2,0.7-3   c0.2-1,0.4-1.9,0.6-2.7h3.5c0.2,0.8,0.4,1.8,0.6,2.7c0.2,1,0.4,2,0.7,3c0.2,1,0.5,2.1,0.8,3.2c0.3,1.1,0.5,2.1,0.8,3.2   c0.3-1,0.5-2,0.8-3.1c0.3-1.1,0.5-2.1,0.7-3.2c0.2-1.1,0.4-2.1,0.7-3.1c0.2-1,0.4-1.9,0.6-2.8h5.1c-0.5,1.8-1,3.6-1.5,5.4   c-0.5,1.8-1,3.5-1.5,5.1c-0.5,1.6-1,3.1-1.4,4.4c-0.5,1.4-0.9,2.5-1.3,3.5h-3.8c-0.6-1.8-1.1-3.5-1.6-5.3   C105.6,40.9,105.2,39.1,104.7,37.4 M120.8,47.9h4.9V29.5h-4.9V47.9z M129.5,24.9l4.9-0.9v5.5h4.8v4.3h-4.8v6.5c0,1.1,0.2,2,0.5,2.6   c0.4,0.7,1.1,1,2.2,1c0.5,0,1.1,0,1.6-0.2c0.6-0.1,1.1-0.3,1.5-0.4l0.7,4.1c-0.6,0.3-1.2,0.5-2,0.7c-0.7,0.2-1.6,0.3-2.7,0.3   c-1.3,0-2.4-0.2-3.3-0.6c-0.9-0.4-1.6-0.9-2.1-1.6c-0.5-0.7-0.9-1.5-1.1-2.5c-0.2-1-0.3-2.1-0.3-3.3V24.9z M142.7,38.7   c0-1.3,0.2-2.6,0.6-3.8c0.4-1.2,1-2.2,1.8-3.1c0.8-0.9,1.7-1.6,2.8-2.1c1.1-0.5,2.3-0.8,3.7-0.8c0.9,0,1.8,0.1,2.5,0.3   c0.8,0.2,1.5,0.4,2.2,0.8l-1,4.2c-0.5-0.2-1-0.3-1.5-0.5c-0.5-0.1-1.2-0.2-1.8-0.2c-1.4,0-2.5,0.5-3.2,1.4c-0.7,1-1.1,2.2-1.1,3.8   c0,1.7,0.3,2.9,1,3.9c0.7,0.9,1.8,1.4,3.5,1.4c0.6,0,1.2-0.1,1.9-0.2c0.7-0.1,1.3-0.3,1.9-0.6l0.7,4.3c-0.6,0.3-1.3,0.5-2.1,0.7   c-0.9,0.2-1.8,0.3-2.8,0.3c-1.6,0-2.9-0.3-4.1-0.8c-1.1-0.5-2.1-1.2-2.8-2.1c-0.7-0.9-1.3-1.9-1.6-3.1   C142.9,41.4,142.7,40.1,142.7,38.7 M159.8,47.9V24.9l4.9-0.9v5.6c0.3-0.1,0.7-0.2,1.3-0.3c0.5-0.1,1-0.2,1.5-0.2   c1.4,0,2.6,0.2,3.5,0.6c0.9,0.4,1.7,1,2.2,1.7c0.6,0.7,1,1.6,1.2,2.7c0.2,1,0.3,2.2,0.3,3.4v10.4h-4.9v-9.8c0-1.7-0.2-2.9-0.6-3.6   c-0.4-0.7-1.2-1-2.2-1c-0.4,0-0.8,0-1.2,0.1c-0.4,0.1-0.7,0.2-1,0.3v14H159.8z M12.5,48V31.2c0,0,2.5-2.1,7.8-2.1   c4.9,0,7.6,2.6,7.6,8.4V48h-4.9V37.5c0-3.7-1.7-3.9-3.2-3.9c-1.5,0-2.4,0.8-2.4,0.8V48H12.5z M3.3,48V24.9L8.2,24v24H3.3z M61,40   h-11c0,0,0.2,3.9,5.1,3.9c2.4,0,4.9-0.8,4.9-0.8l0.5,4.2c0,0-2.4,1-5.9,1c-4.9,0-9.3-2.6-9.3-9.9c0-5.8,3.4-9.4,8.3-9.4   C61,29.1,61.5,36.9,61,40 M53.5,32.7c-3.2,0-3.4,3.7-3.4,3.7h6.8C56.9,36.4,56.6,32.7,53.5,32.7"/>
</g>
</svg>