<?xml version="1.0" encoding="utf-8"?>
<!-- Generator: Adobe Illustrator 16.0.0, SVG Export Plug-In . SVG Version: 6.00 Build 0)  -->
<!DOCTYPE svg PUBLIC "-//W3C//DTD SVG 1.1//EN" "http://www.w3.org/Graphics/SVG/1.1/DTD/svg11.dtd">
<svg version="1.1" id="Layer_1" xmlns="http://www.w3.org/2000/svg" xmlns:xlink="http://www.w3.org/1999/xlink" x="0px" y="0px"
	 width="145px" height="100px" viewBox="51.5 0 145 100" enable-background="new 51.5 0 145 100" xml:space="preserve">
<g>
	<g>
		<path fill="#FFFFFF" d="M83.97,99.778v-6.645c0.111-2.215-1.44-4.097-3.655-4.208c-0.221,0-0.332,0-0.554,0
			c-1.439-0.111-2.879,0.664-3.765,1.883c-0.775-1.219-2.104-1.994-3.543-1.883c-1.218-0.111-2.437,0.554-3.101,1.551v-1.329h-2.215
			v10.631h2.326v-5.869c-0.111-1.329,0.775-2.547,2.104-2.769c0.111,0,0.333,0,0.443,0c1.551,0,2.326,0.996,2.326,2.769v5.869h2.326
			v-5.869c-0.222-1.329,0.775-2.657,2.104-2.769c0.111,0,0.333,0,0.443,0c1.551,0,2.326,0.996,2.326,2.769v5.869H83.97z
			 M118.411,89.147h-3.765v-3.212h-2.326v3.212h-2.104v2.104h2.104v4.872c0,2.437,0.997,3.876,3.655,3.876
			c0.997,0,1.993-0.332,2.879-0.775l-0.665-1.993c-0.665,0.332-1.329,0.554-1.994,0.554c-1.107,0-1.55-0.664-1.55-1.771v-4.762
			h3.765V89.147z M138.012,88.926c-1.107,0-2.215,0.554-2.768,1.551v-1.329h-2.326v10.631h2.326v-5.979
			c0-1.772,0.775-2.77,2.215-2.77c0.442,0,0.996,0.111,1.439,0.223l0.664-2.215C139.119,89.037,138.566,88.926,138.012,88.926
			L138.012,88.926z M108.333,90.033c-1.329-0.775-2.769-1.107-4.319-1.107c-2.658,0-4.429,1.329-4.429,3.434
			c0,1.771,1.329,2.768,3.654,3.1l1.107,0.111c1.218,0.222,1.882,0.554,1.882,1.107c0,0.775-0.886,1.329-2.436,1.329
			c-1.218,0-2.547-0.333-3.544-1.107l-1.107,1.771c1.329,0.886,2.99,1.44,4.541,1.329c3.101,0,4.873-1.439,4.873-3.434
			c0-1.882-1.439-2.879-3.654-3.211l-1.107-0.111c-0.997-0.11-1.772-0.332-1.772-0.996c0-0.775,0.775-1.219,1.993-1.219
			c1.107,0,2.326,0.333,3.322,0.887L108.333,90.033z M170.017,88.926c-1.107,0-2.215,0.554-2.769,1.551v-1.329h-2.326v10.631h2.326
			v-5.979c0-1.772,0.775-2.77,2.215-2.77c0.443,0,0.996,0.111,1.439,0.223l0.664-2.215C171.124,89.037,170.57,88.926,170.017,88.926
			L170.017,88.926z M140.338,94.463c-0.111,2.99,2.215,5.426,5.094,5.537c0.222,0,0.332,0,0.554,0
			c1.329,0.111,2.769-0.332,3.766-1.219l-1.107-1.882c-0.775,0.554-1.772,0.886-2.769,0.997c-1.883-0.111-3.322-1.772-3.212-3.545
			c0.11-1.66,1.44-3.1,3.212-3.211c0.996,0,1.993,0.332,2.769,0.996l1.107-1.882c-1.107-0.886-2.437-1.329-3.766-1.218
			c-2.989-0.223-5.427,2.104-5.647,4.982C140.338,94.131,140.338,94.352,140.338,94.463L140.338,94.463z M161.933,94.463v-5.315
			h-2.325v1.329c-0.775-0.997-1.994-1.551-3.322-1.551c-3.102,0.111-5.427,2.769-5.316,5.869c0.111,2.879,2.437,5.094,5.316,5.316
			c1.328,0.11,2.547-0.555,3.322-1.551v1.328h2.325V94.463z M153.295,94.463c0.11-1.771,1.66-3.101,3.433-2.99
			c1.772,0.111,3.101,1.661,2.99,3.434c-0.11,1.66-1.44,2.99-3.212,2.99s-3.211-1.33-3.211-3.102
			C153.295,94.685,153.295,94.574,153.295,94.463z M125.499,88.926c-3.101,0.111-5.427,2.769-5.316,5.869
			c0.111,2.879,2.547,5.205,5.427,5.316c1.551,0.11,3.101-0.443,4.318-1.44l-1.107-1.661c-0.886,0.664-1.993,1.107-3.101,1.107
			c-1.55,0.111-2.99-0.996-3.211-2.547h7.863c0-0.332,0-0.554,0-0.886C130.592,91.141,128.488,88.926,125.499,88.926L125.499,88.926
			z M125.499,91.029c1.439,0,2.658,1.107,2.658,2.548h-5.537C122.73,92.026,124.059,90.919,125.499,91.029L125.499,91.029z
			 M183.306,94.463v-9.523h-2.325v5.537c-0.775-0.997-1.994-1.551-3.322-1.551c-3.102,0.111-5.427,2.769-5.316,5.869
			c0.111,2.879,2.437,5.094,5.316,5.316c1.328,0.11,2.547-0.555,3.322-1.551v1.328h2.325V94.463z M187.07,98.229
			c0.111,0,0.333,0,0.443,0.11c0.111,0,0.222,0.11,0.332,0.222c0.111,0.11,0.222,0.221,0.222,0.332c0.11,0.222,0.11,0.554,0,0.775
			c0,0.11-0.11,0.221-0.222,0.332c-0.11,0.111-0.221,0.222-0.332,0.222c-0.11,0.11-0.221,0.11-0.443,0.11
			c-0.442,0-0.774-0.221-0.996-0.664c-0.111-0.222-0.111-0.554,0-0.775c0-0.111,0.111-0.222,0.222-0.332
			c0.11-0.111,0.222-0.222,0.332-0.222C186.85,98.229,186.96,98.229,187.07,98.229L187.07,98.229z M187.07,100.111
			c0.111,0,0.223,0,0.333-0.111c0.11,0,0.222-0.111,0.222-0.222c0.332-0.332,0.332-0.886,0-1.107
			c-0.111-0.11-0.111-0.11-0.222-0.222c-0.11,0-0.222-0.11-0.333-0.11c-0.11,0-0.221,0-0.332,0.11c-0.11,0-0.221,0.111-0.221,0.222
			c-0.332,0.333-0.332,0.886,0,1.107c0.11,0.11,0.11,0.11,0.221,0.222C186.85,100.111,186.96,100.111,187.07,100.111L187.07,100.111
			z M187.182,98.781c0.111,0,0.222,0,0.332,0.111c0.111,0.111,0.111,0.111,0.111,0.222s0,0.11-0.111,0.222
			c-0.11,0.11-0.11,0.11-0.221,0.11l0.332,0.332h-0.222l-0.333-0.332h-0.11v0.332h-0.222v-0.997H187.182z M186.96,99.004v0.221
			h0.222h0.111v-0.11v-0.11h-0.111H186.96z M174.668,94.463c0.11-1.771,1.661-3.101,3.433-2.99c1.772,0.111,3.101,1.661,2.99,3.434
			c-0.11,1.66-1.439,2.99-3.212,2.99c-1.771,0-3.211-1.33-3.211-3.102C174.668,94.685,174.668,94.574,174.668,94.463z
			 M96.927,94.463v-5.315h-2.325v1.329c-0.775-0.997-1.994-1.551-3.322-1.551c-3.101,0.111-5.427,2.769-5.316,5.869
			c0.111,2.879,2.437,5.094,5.316,5.316c1.329,0.11,2.547-0.555,3.322-1.551v1.328h2.325V94.463z M88.4,94.463
			c0.111-1.771,1.661-3.101,3.433-2.99c1.771,0.111,3.101,1.661,2.99,3.434c-0.111,1.66-1.439,2.99-3.211,2.99
			s-3.211-1.33-3.211-3.102C88.4,94.685,88.4,94.574,88.4,94.463L88.4,94.463z"/>
		<g>
			<rect x="107.558" y="8.527" fill="#FF5F00" width="34.883" height="62.68"/>
			<path fill="#EB001B" d="M109.773,39.867c0-12.182,5.648-23.81,15.172-31.34C107.669-5.094,82.641-2.104,69.02,15.282
				c-13.622,17.276-10.631,42.304,6.755,55.925c14.507,11.406,34.773,11.406,49.28,0C115.421,63.677,109.773,52.049,109.773,39.867z
				"/>
			<path fill="#F79E1B" d="M189.508,39.867c0,22.037-17.83,39.867-39.867,39.867c-8.971,0-17.608-2.99-24.585-8.527
				c17.276-13.621,20.266-38.649,6.644-56.035c-1.992-2.437-4.207-4.762-6.644-6.645c17.276-13.622,42.415-10.631,55.925,6.755
				C186.518,22.259,189.508,30.897,189.508,39.867L189.508,39.867z"/>
			<path fill="#F79E1B" d="M185.742,64.563v-1.328h0.554v-0.223h-1.329v0.223h0.554v1.328H185.742z M188.289,64.563v-1.551h-0.443
				l-0.442,1.107l-0.443-1.107h-0.442v1.551h0.332v-1.219l0.443,0.998h0.332l0.442-0.998v1.219H188.289z"/>
		</g>
	</g>
</g>
</svg>
