<?xml version="1.0" encoding="utf-8"?>
<!-- Generator: Adobe Illustrator 16.0.0, SVG Export Plug-In . SVG Version: 6.00 Build 0)  -->
<!DOCTYPE svg PUBLIC "-//W3C//DTD SVG 1.1//EN" "http://www.w3.org/Graphics/SVG/1.1/DTD/svg11.dtd">
<svg version="1.1" id="Layer_1" xmlns="http://www.w3.org/2000/svg" xmlns:xlink="http://www.w3.org/1999/xlink" x="0px" y="0px"
	 width="250px" height="53.5px" viewBox="0 23.5 250 53.5" enable-background="new 0 23.5 250 53.5" xml:space="preserve">
<g>
	<path fill="#20C3F3" d="M35.573,31.917H2.075C0.988,31.917,0,32.905,0,33.992v3.755c0,1.186,0.988,2.075,2.075,2.075h33.498
		c1.186,0,2.075-0.988,2.075-2.075v-3.656C37.747,32.905,36.759,31.917,35.573,31.917L35.573,31.917z M35.573,52.965H2.075
		c-0.593,0-1.087,0.197-1.482,0.592C0.198,53.953,0,54.447,0,55.039v3.756c0,1.186,0.988,2.074,2.075,2.074h33.498
		c1.186,0,2.075-0.889,2.075-2.074v-3.756C37.648,53.854,36.759,52.965,35.573,52.965L35.573,52.965z M20.949,63.438H2.075
		c-0.593,0-1.087,0.198-1.482,0.593C0.296,64.427,0,64.921,0,65.514v3.755c0,1.187,0.988,2.075,2.075,2.075h18.874
		c1.186,0,2.075-0.988,2.075-2.075v-3.755C23.024,64.328,22.134,63.438,20.949,63.438L20.949,63.438z M37.747,42.391H2.075
		c-0.593,0-1.087,0.198-1.482,0.593C0.198,43.379,0,43.874,0,44.466v3.755c0,1.186,0.988,2.174,2.075,2.174h35.573
		c1.186,0,2.075-0.988,2.075-2.075v-3.854C39.822,43.379,38.834,42.49,37.747,42.391L37.747,42.391z"/>
	<path fill="#FFFFFF" d="M76.68,40.415c-0.988-1.087-2.272-1.877-3.656-2.47c-1.384-0.593-2.767-0.89-4.348-0.89
		c-1.482-0.099-2.866,0.296-4.15,0.89c-0.89,0.395-1.68,0.988-2.372,1.68v-0.692c0-0.296-0.099-0.691-0.296-0.889
		c-0.198-0.296-0.593-0.395-0.89-0.395h-4.545c-0.296,0-0.691,0.099-0.889,0.395c-0.296,0.296-0.296,0.593-0.296,0.889v31.226
		c0,0.297,0.099,0.691,0.296,0.889c0.296,0.297,0.593,0.297,0.889,0.297h4.743c0.296,0,0.593-0.099,0.889-0.297
		c0.296-0.197,0.396-0.592,0.296-0.889V59.486c0.692,0.791,1.482,1.284,2.471,1.68c1.186,0.494,2.569,0.691,3.953,0.691
		c1.482,0,3.063-0.297,4.348-0.889c1.383-0.594,2.569-1.482,3.656-2.471c1.087-1.087,1.877-2.471,2.47-3.953
		c0.692-1.68,0.988-3.359,0.889-5.138c0.099-1.779-0.296-3.458-0.889-5.139C78.656,42.885,77.767,41.502,76.68,40.415L76.68,40.415z
		 M72.431,51.68c-0.296,0.691-0.593,1.186-1.087,1.779c-0.988,0.988-2.372,1.68-3.755,1.68c-0.691,0-1.482-0.1-2.075-0.494
		c-0.593-0.297-1.186-0.691-1.68-1.186s-0.889-1.088-1.087-1.779c-0.593-1.482-0.593-2.964,0-4.348
		c0.296-0.692,0.692-1.186,1.087-1.779c0.494-0.494,1.087-0.889,1.68-1.186c0.692-0.296,1.384-0.494,2.075-0.494
		c0.791,0,1.482,0.099,2.075,0.494c0.593,0.296,1.186,0.691,1.68,1.186s0.791,1.087,1.087,1.779
		C73.024,48.715,72.925,50.296,72.431,51.68L72.431,51.68z M105.632,37.747h-4.743c-0.296,0-0.691,0.099-0.889,0.296
		c-0.296,0.296-0.296,0.593-0.296,0.988v0.593c-0.593-0.692-1.285-1.186-2.075-1.68c-1.285-0.593-2.767-0.89-4.15-0.89
		c-3.063,0-5.929,1.186-8.103,3.36c-1.087,1.087-1.976,2.47-2.569,3.953c-0.691,1.68-0.988,3.359-0.988,5.138
		c-0.099,1.779,0.296,3.459,0.988,5.139c0.593,1.482,1.482,2.767,2.569,3.952c2.075,2.174,5.04,3.36,8.004,3.36
		c1.482,0.098,2.767-0.297,4.15-0.89c0.791-0.396,1.581-0.988,2.174-1.681v0.594c0,0.297,0.099,0.691,0.296,0.889
		c0.296,0.198,0.593,0.297,0.889,0.297h4.743c0.296,0,0.692-0.099,0.89-0.297c0.296-0.296,0.296-0.592,0.296-0.889V39.13
		c0-0.296-0.099-0.692-0.296-0.889C106.225,37.846,105.929,37.747,105.632,37.747L105.632,37.747z M99.209,51.68
		c-0.296,0.691-0.593,1.186-1.087,1.779c-0.494,0.494-0.988,0.889-1.68,1.186c-1.285,0.593-2.866,0.593-4.15,0
		c-0.593-0.297-1.186-0.691-1.68-1.186s-0.89-1.088-1.087-1.779c-0.494-1.482-0.494-2.964,0-4.348
		c0.296-0.692,0.593-1.186,1.087-1.779c0.494-0.494,0.988-0.889,1.68-1.186c1.285-0.593,2.866-0.593,4.15,0
		c0.593,0.296,1.186,0.691,1.68,1.186s0.791,1.087,1.087,1.779C99.704,48.715,99.704,50.296,99.209,51.68L99.209,51.68z
		 M152.471,48.814c-0.691-0.593-1.482-1.087-2.273-1.482c-0.889-0.296-1.877-0.593-2.767-0.791l-3.558-0.692
		c-0.889-0.099-1.58-0.395-1.877-0.691c-0.297-0.198-0.494-0.593-0.494-0.89c0-0.296,0.197-0.691,0.691-0.988
		c0.594-0.296,1.285-0.494,1.977-0.494c0.889,0,1.877,0.198,2.668,0.593c0.791,0.296,1.68,0.791,2.371,1.186
		c0.988,0.691,1.977,0.593,2.57-0.198l1.68-1.977c0.296-0.296,0.494-0.791,0.592-1.186c-0.098-0.494-0.296-0.889-0.691-1.186
		c-0.691-0.593-1.877-1.284-3.458-1.976c-1.482-0.692-3.458-0.988-5.83-0.988c-1.482-0.099-2.767,0.099-4.15,0.593
		c-1.087,0.296-2.174,0.889-3.162,1.68c-0.89,0.691-1.481,1.482-2.075,2.47c-0.494,0.988-0.691,1.977-0.691,3.063
		c0,1.976,0.593,3.557,1.779,4.743c1.186,1.187,2.766,1.977,4.545,2.372l3.755,0.79c0.79,0.099,1.68,0.297,2.372,0.79
		c0.395,0.1,0.691,0.594,0.691,0.988c0,0.396-0.198,0.791-0.691,1.088c-0.494,0.296-1.187,0.592-2.175,0.592
		c-0.987,0-2.075-0.197-2.964-0.691c-0.89-0.395-1.68-0.988-2.372-1.58c-0.296-0.297-0.691-0.494-1.087-0.594
		c-0.395-0.099-0.988,0-1.482,0.494l-2.074,1.482c-0.594,0.396-0.89,1.087-0.692,1.779c0.099,0.691,0.692,1.383,1.681,2.174
		c2.568,1.778,5.73,2.668,8.794,2.568c1.481,0,2.964-0.099,4.348-0.593c1.186-0.296,2.372-0.89,3.36-1.68
		c0.889-0.692,1.68-1.482,2.174-2.569c0.494-0.988,0.79-2.074,0.79-3.261c0.099-0.988-0.099-1.976-0.593-2.964
		C153.755,50.099,153.162,49.407,152.471,48.814L152.471,48.814z M173.123,54.545c-0.198-0.296-0.594-0.592-0.988-0.691
		c-0.396,0-0.89,0.1-1.186,0.297c-0.594,0.297-1.187,0.593-1.878,0.593c-0.198,0-0.494-0.099-0.692-0.099
		c-0.296-0.1-0.494-0.1-0.592-0.297c-0.198-0.197-0.297-0.494-0.494-0.691c-0.1-0.396-0.297-0.791-0.198-1.186v-8.597h6.126
		c0.297,0,0.692-0.099,0.988-0.396c0.297-0.296,0.396-0.593,0.396-0.889v-3.656c0-0.296-0.099-0.691-0.396-0.889
		c-0.296-0.296-0.592-0.296-0.889-0.296h-6.324v-5.929c0-0.297-0.099-0.692-0.297-0.89c-0.296-0.197-0.592-0.296-0.889-0.296h-4.743
		c-0.297,0-0.692,0.099-0.89,0.296c-0.297,0.296-0.395,0.593-0.395,0.89v5.83h-2.768c-0.297,0-0.691,0.099-0.889,0.395
		c-0.198,0.296-0.297,0.593-0.297,0.889v3.656c0,0.296,0.099,0.692,0.297,0.889c0.197,0.297,0.592,0.396,0.889,0.396h2.768v10.177
		c-0.1,1.187,0.197,2.372,0.691,3.459c0.494,0.89,0.988,1.68,1.877,2.371c0.791,0.594,1.68,1.088,2.569,1.285
		c0.988,0.297,1.977,0.494,2.964,0.494c1.285,0,2.57-0.197,3.953-0.593c1.186-0.297,2.174-0.988,3.063-1.878
		c0.593-0.593,0.593-1.482,0.099-2.074L173.123,54.545z M198.814,37.747h-4.743c-0.296,0-0.593,0.099-0.89,0.296
		c-0.297,0.296-0.297,0.593-0.297,0.988v0.593c-0.592-0.692-1.284-1.186-2.074-1.68c-1.285-0.593-2.768-0.89-4.15-0.89
		c-3.063,0-5.929,1.186-8.104,3.36c-1.086,1.087-1.976,2.47-2.568,3.953c-0.691,1.68-0.988,3.359-0.988,5.138
		c-0.099,1.779,0.297,3.459,0.988,5.139c0.593,1.482,1.482,2.767,2.568,3.952c2.076,2.174,5.04,3.36,8.004,3.36
		c1.482,0.098,2.768-0.297,4.15-0.89c0.791-0.396,1.582-0.988,2.174-1.681v0.594c0,0.297,0.1,0.691,0.297,0.889
		c0.297,0.297,0.594,0.297,0.89,0.297h4.743c0.691,0,1.186-0.593,1.186-1.186V39.13c0-0.296-0.099-0.692-0.297-0.889
		C199.506,37.846,199.209,37.747,198.814,37.747L198.814,37.747z M192.49,51.68c-0.297,0.691-0.593,1.186-1.087,1.779
		c-0.494,0.494-0.988,0.889-1.681,1.186c-0.691,0.297-1.383,0.494-2.074,0.494c-0.791,0-1.482-0.1-2.075-0.494
		c-0.593-0.297-1.187-0.691-1.681-1.186c-0.493-0.494-0.889-1.088-1.086-1.779c-0.494-1.482-0.494-2.964,0-4.348
		c0.296-0.692,0.593-1.186,1.086-1.779c0.494-0.494,1.088-0.889,1.681-1.186c0.691-0.296,1.384-0.494,2.075-0.494
		s1.482,0.099,2.074,0.494c0.594,0.296,1.187,0.691,1.681,1.186s0.89,1.087,1.087,1.779C193.083,48.715,193.083,50.296,192.49,51.68
		L192.49,51.68z M224.605,54.249l-2.768-2.075c-0.494-0.395-0.988-0.593-1.482-0.297c-0.297,0.1-0.691,0.396-0.988,0.692
		c-0.592,0.691-1.284,1.284-2.074,1.878c-0.791,0.494-1.68,0.691-2.57,0.592c-1.086,0-2.074-0.296-2.964-0.889
		c-0.89-0.594-1.481-1.482-1.878-2.471c-0.296-0.691-0.296-1.482-0.296-2.075c0-0.79,0.099-1.482,0.296-2.174
		c0.297-0.691,0.594-1.186,1.088-1.778c0.494-0.494,0.988-0.89,1.68-1.186s1.383-0.494,2.074-0.494
		c0.891-0.099,1.878,0.198,2.57,0.692c0.79,0.494,1.482,1.087,2.074,1.877c0.297,0.296,0.594,0.593,0.988,0.692
		c0.396,0.099,0.89,0.099,1.482-0.297l2.768-2.075c0.296-0.198,0.592-0.593,0.691-0.89c0.099-0.395,0.099-0.889-0.1-1.186
		c-0.988-1.68-2.471-2.964-4.15-3.953c-1.778-0.988-3.952-1.482-6.324-1.482c-1.68,0-3.359,0.297-4.939,0.988
		c-1.482,0.593-2.768,1.482-3.953,2.569s-2.075,2.47-2.668,3.953c-1.285,3.162-1.285,6.621,0,9.683
		c0.593,1.482,1.482,2.768,2.668,3.953c2.371,2.371,5.533,3.557,8.893,3.557c2.372,0,4.546-0.592,6.324-1.481
		c1.68-0.988,3.162-2.272,4.15-3.952c0.198-0.297,0.297-0.791,0.1-1.187C225.197,54.743,225,54.545,224.605,54.249L224.605,54.249z
		 M249.703,59.091l-7.41-10.87l6.324-8.399c0.296-0.296,0.395-0.89,0.296-1.384c-0.099-0.296-0.396-0.691-1.187-0.691h-5.039
		c-0.297,0-0.593,0.099-0.79,0.198c-0.297,0.099-0.593,0.395-0.79,0.691l-5.04,7.115h-1.187V28.953c0-0.296-0.098-0.692-0.296-0.889
		c-0.296-0.297-0.593-0.297-0.89-0.297h-4.742c-0.297,0-0.692,0.099-0.89,0.297c-0.297,0.296-0.297,0.593-0.297,0.889V59.98
		c0,0.297,0.099,0.691,0.297,0.889c0.197,0.198,0.593,0.297,0.89,0.297h4.742c0.297,0,0.691-0.099,0.89-0.297
		c0.296-0.296,0.296-0.592,0.296-0.889v-8.201h1.285l5.533,8.498c0.297,0.592,0.988,0.987,1.68,0.987h5.238
		c0.79,0,1.086-0.296,1.284-0.691C250,60.079,250,59.486,249.703,59.091L249.703,59.091z M132.313,37.747h-5.237
		c-0.396,0-0.79,0.099-1.087,0.395s-0.396,0.593-0.494,0.89l-3.953,14.525h-0.988l-4.15-14.525c-0.099-0.296-0.198-0.593-0.396-0.89
		c-0.296-0.296-0.593-0.494-0.988-0.494h-5.336c-0.691,0-1.087,0.197-1.284,0.691c-0.099,0.396-0.099,0.89,0,1.285l6.62,20.455
		c0.099,0.296,0.297,0.593,0.494,0.79c0.296,0.297,0.593,0.297,0.988,0.297h2.767l-0.296,0.691l-0.593,1.878
		c-0.198,0.593-0.593,1.087-0.988,1.481c-0.494,0.297-0.988,0.594-1.581,0.494c-0.494,0-0.988-0.098-1.482-0.296
		s-0.889-0.494-1.186-0.79c-0.296-0.297-0.791-0.297-1.186-0.297h-0.099c-0.494,0.099-0.988,0.297-1.186,0.791l-1.68,2.47
		c-0.692,1.087-0.296,1.778,0.099,2.075c0.89,0.791,1.977,1.482,3.162,1.877c1.285,0.494,2.569,0.692,3.953,0.692
		c2.372,0,4.348-0.692,5.929-1.977c1.581-1.481,2.767-3.261,3.36-5.336l7.707-25.198c0.1-0.494,0.198-0.889,0.1-1.285
		C133.399,38.043,133.004,37.747,132.313,37.747L132.313,37.747z"/>
</g>
</svg>
