<?xml version="1.0" encoding="utf-8"?>
<!-- Generator: Adobe Illustrator 16.0.0, SVG Export Plug-In . SVG Version: 6.00 Build 0)  -->
<!DOCTYPE svg PUBLIC "-//W3C//DTD SVG 1.1//EN" "http://www.w3.org/Graphics/SVG/1.1/DTD/svg11.dtd">
<svg version="1.1" id="Layer_1" xmlns="http://www.w3.org/2000/svg" xmlns:xlink="http://www.w3.org/1999/xlink" x="0px" y="0px"
	 width="250px" height="100px" viewBox="0 0 250 100" enable-background="new 0 0 250 100" xml:space="preserve">
<g id="Group_1_" transform="translate(66.000000, 35.000000)">
	<circle id="Oval_1_" fill="#ED332B" cx="-22.777" cy="15" r="43.223"/>
	<path id="Shape_9_" fill="#FFFFFF" d="M-22.777,33.5C-32.459,11.542-39.548-8.859-39.548-8.859h-14.869
		c0,0,8.991,26.279,25.761,59.128h11.584C-0.302,17.42,8.689-8.859,8.689-8.859H-6.18C-6.007-8.859-13.095,11.542-22.777,33.5z"/>
	<path id="Shape_8_" fill="#02435F" d="M183.654,30.732h-28.873c0,0,0.691,9.683,13.486,9.683c6.396,0,12.793-1.901,12.793-1.901
		l1.211,10.373c0,0-6.397,2.594-15.388,2.594c-12.794,0-24.378-6.397-24.378-24.551c0-14.177,8.99-23.34,21.785-23.34
		C183.654,3.589,185.037,22.953,183.654,30.732z M163.771,12.58c-8.299,0-8.99,8.991-8.99,8.991h17.98
		C172.762,21.57,172.07,12.58,163.771,12.58z"/>
	<path id="Shape_7_" fill="#02435F" d="M84.069,15.519l1.901-10.374c0,0-14.868-4.495-26.971,3.804v41.148h12.794V16.729
		C76.98,12.925,84.069,15.519,84.069,15.519z"/>
	<path id="Shape_6_" fill="#02435F" d="M48.972,30.732H20.1c0,0,0.691,9.683,13.485,9.683c6.397,0,12.794-1.901,12.794-1.901
		l1.21,10.373c0,0-6.397,2.594-15.387,2.594c-12.794,0-24.378-6.397-24.378-24.551c0-14.177,8.99-23.34,21.784-23.34
		C48.972,3.589,50.355,22.953,48.972,30.732z M29.09,12.58c-8.299,0-8.99,8.991-8.99,8.991h17.98
		C38.08,21.57,37.389,12.58,29.09,12.58z"/>
	<path id="Shape_5_" fill="#02435F" d="M115.362,34.709c-4.149-9.682-7.261-19.709-9.682-29.91H92.887
		c0,0,6.396,24.896,17.289,45.47h10.373c10.893-20.574,17.289-45.47,17.289-45.47h-12.793C122.451,15,119.339,25.027,115.362,34.709
		z"/>
</g>
</svg>
