<?xml version="1.0" encoding="utf-8"?>
<!-- Generator: Adobe Illustrator 16.0.0, SVG Export Plug-In . SVG Version: 6.00 Build 0)  -->
<!DOCTYPE svg PUBLIC "-//W3C//DTD SVG 1.1//EN" "http://www.w3.org/Graphics/SVG/1.1/DTD/svg11.dtd">
<svg version="1.1" id="Layer_1" xmlns="http://www.w3.org/2000/svg" xmlns:xlink="http://www.w3.org/1999/xlink" x="0px" y="0px"
	 width="143px" height="48px" viewBox="51.167 27.5 143 48" enable-background="new 51.167 27.5 143 48" xml:space="preserve">
<path fill="#FFFFFF" d="M106.517,29.487L89.209,70.513H77.885l-8.547-32.906c-0.427-1.923-1.068-2.778-2.564-3.632
	c-2.564-1.282-6.837-2.778-10.47-3.419l0.214-1.282H74.68c2.35,0,4.487,1.496,4.915,4.273l4.487,23.932l11.111-27.991H106.517z
	 M150.534,57.051c0-10.897-14.957-11.538-14.957-16.239c0-1.496,1.495-2.992,4.487-3.419c1.495-0.213,5.77-0.427,10.47,1.923
	l1.923-8.761c-2.564-0.855-5.77-1.923-10.043-1.923c-10.47,0-17.948,5.556-17.948,13.675c0,5.983,5.342,9.188,9.401,11.111
	c4.061,1.923,5.556,3.205,5.556,5.128c0,2.777-3.205,4.061-6.41,4.061c-5.342,0-8.547-1.496-10.897-2.564l-1.923,8.975
	c2.564,1.068,7.052,2.137,11.752,2.137C143.27,71.154,150.534,65.598,150.534,57.051 M178.313,70.513h9.828l-8.547-41.239h-9.188
	c-2.137,0-3.846,1.282-4.487,2.992l-15.812,38.248h11.11l2.137-6.196h13.675L178.313,70.513z M166.561,55.982l5.555-15.384
	l3.205,15.384H166.561z M121.688,29.487l-8.761,41.025h-10.684l8.761-41.239h10.684V29.487z"/>
</svg>
